# xmcd
#
# Track frame offsets:
#	150
#	16844
#	33885
#	46541
#	66160
#	79755
#	103925
#	123662
#	145981
#	167814
#	187478
#	206574
#	220184
#
# Disc length: 3140 seconds
#
# Revision: 1
# Processed by: cddbd v1.5.2PL0 Copyright (c) Steve Scherf et al.
# Submitted via: audiograbber 1.83.01
#
DISCID=bb0c420d
DTITLE=Na Papapalai - Best of
DYEAR=2010
DGENRE=
TTITLE0=Pili Kapekepeke
TTITLE1=Ka Puna Hae Hawaii
TTITLE2=Makani Olu olu
TTITLE3=Ke Anu O Weimea
TTITLE4=Hawaii No E Ka Oi
TTITLE5=Hilo Medley - Mahalo E Hilo Hanakahi - Hilo E
TTITLE6=Puna Lei Aloha
TTITLE7=Waiulu
TTITLE8=Ke Ala Beauty
TTITLE9=Lei Kula Na Alii
TTITLE10=Hanohano Wailea
TTITLE11=Lovely Tiare Tahiti
TTITLE12=Ke´ei
EXTD=
EXTT0=
EXTT1=
EXTT2=
EXTT3=
EXTT4=
EXTT5=
EXTT6=
EXTT7=
EXTT8=
EXTT9=
EXTT10=
EXTT11=
EXTT12=
PLAYORDER=
